<mxfile host="app.diagrams.net" modified="2024-04-20T00:37:12.839Z" agent="Mozilla/5.0 (Windows NT 10.0; Win64; x64) AppleWebKit/537.36 (KHTML, like Gecko) Chrome/124.0.0.0 Safari/537.36" etag="5GDMcPr_AF0ApT1qM3wh" version="24.2.3" type="device">
  <diagram name="Page-1" id="lgWDepmsRa5geO7uVS3Z">
    <mxGraphModel dx="1358" dy="592" grid="1" gridSize="10" guides="1" tooltips="1" connect="1" arrows="1" fold="1" page="1" pageScale="1" pageWidth="850" pageHeight="1100" math="0" shadow="0">
      <root>
        <mxCell id="0" />
        <mxCell id="1" parent="0" />
        <mxCell id="sIWkNSeTRiQGxRRJWXNQ-1" value="USER" style="rounded=0;whiteSpace=wrap;html=1;" parent="1" vertex="1">
          <mxGeometry x="119" y="440" width="160" height="60" as="geometry" />
        </mxCell>
        <mxCell id="sIWkNSeTRiQGxRRJWXNQ-2" value="id" style="ellipse;whiteSpace=wrap;html=1;" parent="1" vertex="1">
          <mxGeometry x="50" y="290" width="80" height="40" as="geometry" />
        </mxCell>
        <mxCell id="sIWkNSeTRiQGxRRJWXNQ-5" value="username" style="ellipse;whiteSpace=wrap;html=1;fontStyle=4" parent="1" vertex="1">
          <mxGeometry x="20" y="330" width="80" height="40" as="geometry" />
        </mxCell>
        <mxCell id="sIWkNSeTRiQGxRRJWXNQ-6" value="first_name" style="ellipse;whiteSpace=wrap;html=1;" parent="1" vertex="1">
          <mxGeometry x="100" y="250" width="80" height="40" as="geometry" />
        </mxCell>
        <mxCell id="sIWkNSeTRiQGxRRJWXNQ-7" value="last_name" style="ellipse;whiteSpace=wrap;html=1;" parent="1" vertex="1">
          <mxGeometry x="159" y="210" width="80" height="40" as="geometry" />
        </mxCell>
        <mxCell id="sIWkNSeTRiQGxRRJWXNQ-9" value="password" style="ellipse;whiteSpace=wrap;html=1;" parent="1" vertex="1">
          <mxGeometry x="239" y="220" width="80" height="40" as="geometry" />
        </mxCell>
        <mxCell id="sIWkNSeTRiQGxRRJWXNQ-10" value="email" style="ellipse;whiteSpace=wrap;html=1;" parent="1" vertex="1">
          <mxGeometry x="279" y="270" width="80" height="40" as="geometry" />
        </mxCell>
        <mxCell id="sIWkNSeTRiQGxRRJWXNQ-11" value="phone" style="ellipse;whiteSpace=wrap;html=1;" parent="1" vertex="1">
          <mxGeometry x="310" y="320" width="80" height="40" as="geometry" />
        </mxCell>
        <mxCell id="sIWkNSeTRiQGxRRJWXNQ-27" value="" style="endArrow=classic;html=1;rounded=0;entryX=0.995;entryY=0.73;entryDx=0;entryDy=0;entryPerimeter=0;exitX=0.5;exitY=0;exitDx=0;exitDy=0;" parent="1" source="sIWkNSeTRiQGxRRJWXNQ-1" target="sIWkNSeTRiQGxRRJWXNQ-5" edge="1">
          <mxGeometry width="50" height="50" relative="1" as="geometry">
            <mxPoint x="130" y="370" as="sourcePoint" />
            <mxPoint x="180" y="320" as="targetPoint" />
          </mxGeometry>
        </mxCell>
        <mxCell id="sIWkNSeTRiQGxRRJWXNQ-28" value="" style="endArrow=classic;html=1;rounded=0;entryX=1;entryY=1;entryDx=0;entryDy=0;exitX=0.5;exitY=0;exitDx=0;exitDy=0;" parent="1" source="sIWkNSeTRiQGxRRJWXNQ-1" target="sIWkNSeTRiQGxRRJWXNQ-2" edge="1">
          <mxGeometry width="50" height="50" relative="1" as="geometry">
            <mxPoint x="140" y="370" as="sourcePoint" />
            <mxPoint x="190" y="320" as="targetPoint" />
          </mxGeometry>
        </mxCell>
        <mxCell id="sIWkNSeTRiQGxRRJWXNQ-29" value="" style="endArrow=classic;html=1;rounded=0;entryX=0.655;entryY=1.1;entryDx=0;entryDy=0;entryPerimeter=0;" parent="1" target="sIWkNSeTRiQGxRRJWXNQ-6" edge="1">
          <mxGeometry width="50" height="50" relative="1" as="geometry">
            <mxPoint x="200" y="440" as="sourcePoint" />
            <mxPoint x="200" y="320" as="targetPoint" />
          </mxGeometry>
        </mxCell>
        <mxCell id="sIWkNSeTRiQGxRRJWXNQ-30" value="" style="endArrow=classic;html=1;rounded=0;entryX=0.5;entryY=1;entryDx=0;entryDy=0;" parent="1" target="sIWkNSeTRiQGxRRJWXNQ-7" edge="1">
          <mxGeometry width="50" height="50" relative="1" as="geometry">
            <mxPoint x="200" y="440" as="sourcePoint" />
            <mxPoint x="220" y="320" as="targetPoint" />
          </mxGeometry>
        </mxCell>
        <mxCell id="sIWkNSeTRiQGxRRJWXNQ-31" value="" style="endArrow=classic;html=1;rounded=0;entryX=0;entryY=1;entryDx=0;entryDy=0;exitX=0.5;exitY=0;exitDx=0;exitDy=0;" parent="1" source="sIWkNSeTRiQGxRRJWXNQ-1" target="sIWkNSeTRiQGxRRJWXNQ-9" edge="1">
          <mxGeometry width="50" height="50" relative="1" as="geometry">
            <mxPoint x="180" y="380" as="sourcePoint" />
            <mxPoint x="200" y="210" as="targetPoint" />
          </mxGeometry>
        </mxCell>
        <mxCell id="sIWkNSeTRiQGxRRJWXNQ-32" value="" style="endArrow=classic;html=1;rounded=0;entryX=0;entryY=1;entryDx=0;entryDy=0;exitX=0.5;exitY=0;exitDx=0;exitDy=0;" parent="1" source="sIWkNSeTRiQGxRRJWXNQ-1" target="sIWkNSeTRiQGxRRJWXNQ-10" edge="1">
          <mxGeometry width="50" height="50" relative="1" as="geometry">
            <mxPoint x="190" y="390" as="sourcePoint" />
            <mxPoint x="210" y="220" as="targetPoint" />
          </mxGeometry>
        </mxCell>
        <mxCell id="sIWkNSeTRiQGxRRJWXNQ-33" value="" style="endArrow=classic;html=1;rounded=0;entryX=0;entryY=1;entryDx=0;entryDy=0;" parent="1" target="sIWkNSeTRiQGxRRJWXNQ-11" edge="1">
          <mxGeometry width="50" height="50" relative="1" as="geometry">
            <mxPoint x="200" y="440" as="sourcePoint" />
            <mxPoint x="220" y="230" as="targetPoint" />
          </mxGeometry>
        </mxCell>
        <mxCell id="sIWkNSeTRiQGxRRJWXNQ-35" value="status" style="ellipse;whiteSpace=wrap;html=1;" parent="1" vertex="1">
          <mxGeometry x="10" y="380" width="80" height="40" as="geometry" />
        </mxCell>
        <mxCell id="sIWkNSeTRiQGxRRJWXNQ-36" value="about" style="ellipse;whiteSpace=wrap;html=1;" parent="1" vertex="1">
          <mxGeometry x="319" y="380" width="80" height="40" as="geometry" />
        </mxCell>
        <mxCell id="sIWkNSeTRiQGxRRJWXNQ-39" value="" style="endArrow=classic;html=1;rounded=0;exitX=0.5;exitY=0;exitDx=0;exitDy=0;" parent="1" source="sIWkNSeTRiQGxRRJWXNQ-1" target="sIWkNSeTRiQGxRRJWXNQ-36" edge="1">
          <mxGeometry width="50" height="50" relative="1" as="geometry">
            <mxPoint x="280" y="380" as="sourcePoint" />
            <mxPoint x="332" y="354" as="targetPoint" />
          </mxGeometry>
        </mxCell>
        <mxCell id="sIWkNSeTRiQGxRRJWXNQ-40" value="" style="endArrow=classic;html=1;rounded=0;entryX=1.03;entryY=0.34;entryDx=0;entryDy=0;entryPerimeter=0;exitX=0.5;exitY=0;exitDx=0;exitDy=0;" parent="1" source="sIWkNSeTRiQGxRRJWXNQ-1" target="sIWkNSeTRiQGxRRJWXNQ-35" edge="1">
          <mxGeometry width="50" height="50" relative="1" as="geometry">
            <mxPoint x="140" y="380" as="sourcePoint" />
            <mxPoint x="100" y="349" as="targetPoint" />
          </mxGeometry>
        </mxCell>
        <mxCell id="sIWkNSeTRiQGxRRJWXNQ-41" value="ROLE" style="rounded=0;whiteSpace=wrap;html=1;" parent="1" vertex="1">
          <mxGeometry x="580" y="440" width="160" height="60" as="geometry" />
        </mxCell>
        <mxCell id="sIWkNSeTRiQGxRRJWXNQ-42" value="role_id" style="ellipse;whiteSpace=wrap;html=1;fontStyle=4" parent="1" vertex="1">
          <mxGeometry x="520" y="320" width="80" height="40" as="geometry" />
        </mxCell>
        <mxCell id="sIWkNSeTRiQGxRRJWXNQ-43" value="role" style="ellipse;whiteSpace=wrap;html=1;" parent="1" vertex="1">
          <mxGeometry x="700" y="320" width="80" height="40" as="geometry" />
        </mxCell>
        <mxCell id="sIWkNSeTRiQGxRRJWXNQ-44" value="" style="endArrow=classic;html=1;rounded=0;exitX=0.5;exitY=0;exitDx=0;exitDy=0;entryX=0.6;entryY=1.02;entryDx=0;entryDy=0;entryPerimeter=0;" parent="1" source="sIWkNSeTRiQGxRRJWXNQ-41" target="sIWkNSeTRiQGxRRJWXNQ-42" edge="1">
          <mxGeometry width="50" height="50" relative="1" as="geometry">
            <mxPoint x="510" y="362" as="sourcePoint" />
            <mxPoint x="549" y="360" as="targetPoint" />
          </mxGeometry>
        </mxCell>
        <mxCell id="sIWkNSeTRiQGxRRJWXNQ-45" value="" style="endArrow=classic;html=1;rounded=0;entryX=0.375;entryY=1.1;entryDx=0;entryDy=0;entryPerimeter=0;exitX=0.5;exitY=0;exitDx=0;exitDy=0;" parent="1" source="sIWkNSeTRiQGxRRJWXNQ-41" target="sIWkNSeTRiQGxRRJWXNQ-43" edge="1">
          <mxGeometry width="50" height="50" relative="1" as="geometry">
            <mxPoint x="690" y="330" as="sourcePoint" />
            <mxPoint x="339" y="403" as="targetPoint" />
          </mxGeometry>
        </mxCell>
        <mxCell id="sIWkNSeTRiQGxRRJWXNQ-47" value="USER_ROLE" style="rounded=0;whiteSpace=wrap;html=1;" parent="1" vertex="1">
          <mxGeometry x="350" y="580" width="160" height="60" as="geometry" />
        </mxCell>
        <mxCell id="sIWkNSeTRiQGxRRJWXNQ-50" value="" style="edgeStyle=orthogonalEdgeStyle;rounded=0;orthogonalLoop=1;jettySize=auto;html=1;" parent="1" source="sIWkNSeTRiQGxRRJWXNQ-48" target="sIWkNSeTRiQGxRRJWXNQ-1" edge="1">
          <mxGeometry relative="1" as="geometry" />
        </mxCell>
        <mxCell id="sIWkNSeTRiQGxRRJWXNQ-51" value="" style="edgeStyle=orthogonalEdgeStyle;rounded=0;orthogonalLoop=1;jettySize=auto;html=1;" parent="1" source="sIWkNSeTRiQGxRRJWXNQ-48" target="sIWkNSeTRiQGxRRJWXNQ-47" edge="1">
          <mxGeometry relative="1" as="geometry" />
        </mxCell>
        <mxCell id="sIWkNSeTRiQGxRRJWXNQ-48" value="HAS" style="rhombus;whiteSpace=wrap;html=1;" parent="1" vertex="1">
          <mxGeometry x="159" y="570" width="80" height="80" as="geometry" />
        </mxCell>
        <mxCell id="sIWkNSeTRiQGxRRJWXNQ-52" value="" style="edgeStyle=orthogonalEdgeStyle;rounded=0;orthogonalLoop=1;jettySize=auto;html=1;" parent="1" source="sIWkNSeTRiQGxRRJWXNQ-49" target="sIWkNSeTRiQGxRRJWXNQ-41" edge="1">
          <mxGeometry relative="1" as="geometry" />
        </mxCell>
        <mxCell id="sIWkNSeTRiQGxRRJWXNQ-53" value="" style="edgeStyle=orthogonalEdgeStyle;rounded=0;orthogonalLoop=1;jettySize=auto;html=1;" parent="1" source="sIWkNSeTRiQGxRRJWXNQ-49" target="sIWkNSeTRiQGxRRJWXNQ-47" edge="1">
          <mxGeometry relative="1" as="geometry" />
        </mxCell>
        <mxCell id="sIWkNSeTRiQGxRRJWXNQ-49" value="HAS" style="rhombus;whiteSpace=wrap;html=1;" parent="1" vertex="1">
          <mxGeometry x="620" y="570" width="80" height="80" as="geometry" />
        </mxCell>
        <mxCell id="sIWkNSeTRiQGxRRJWXNQ-54" value="1" style="text;html=1;align=center;verticalAlign=middle;resizable=0;points=[];autosize=1;strokeColor=none;fillColor=none;" parent="1" vertex="1">
          <mxGeometry x="205" y="508" width="30" height="30" as="geometry" />
        </mxCell>
        <mxCell id="sIWkNSeTRiQGxRRJWXNQ-55" value="n" style="text;html=1;align=center;verticalAlign=middle;resizable=0;points=[];autosize=1;strokeColor=none;fillColor=none;" parent="1" vertex="1">
          <mxGeometry x="305" y="578" width="30" height="30" as="geometry" />
        </mxCell>
        <mxCell id="sIWkNSeTRiQGxRRJWXNQ-56" value="1" style="text;html=1;align=center;verticalAlign=middle;resizable=0;points=[];autosize=1;strokeColor=none;fillColor=none;" parent="1" vertex="1">
          <mxGeometry x="615" y="498" width="30" height="30" as="geometry" />
        </mxCell>
        <mxCell id="sIWkNSeTRiQGxRRJWXNQ-57" value="n" style="text;html=1;align=center;verticalAlign=middle;resizable=0;points=[];autosize=1;strokeColor=none;fillColor=none;" parent="1" vertex="1">
          <mxGeometry x="515" y="578" width="30" height="30" as="geometry" />
        </mxCell>
        <mxCell id="sIWkNSeTRiQGxRRJWXNQ-59" value="userRoleID" style="ellipse;whiteSpace=wrap;html=1;" parent="1" vertex="1">
          <mxGeometry x="300" y="468" width="80" height="40" as="geometry" />
        </mxCell>
        <mxCell id="sIWkNSeTRiQGxRRJWXNQ-60" value="user_id" style="ellipse;whiteSpace=wrap;html=1;" parent="1" vertex="1">
          <mxGeometry x="385" y="468" width="80" height="40" as="geometry" />
        </mxCell>
        <mxCell id="sIWkNSeTRiQGxRRJWXNQ-61" value="roleId" style="ellipse;whiteSpace=wrap;html=1;" parent="1" vertex="1">
          <mxGeometry x="470" y="470" width="80" height="40" as="geometry" />
        </mxCell>
        <mxCell id="sIWkNSeTRiQGxRRJWXNQ-62" value="" style="endArrow=classic;html=1;rounded=0;exitX=0.5;exitY=0;exitDx=0;exitDy=0;entryX=0.615;entryY=1.05;entryDx=0;entryDy=0;entryPerimeter=0;" parent="1" source="sIWkNSeTRiQGxRRJWXNQ-47" target="sIWkNSeTRiQGxRRJWXNQ-59" edge="1">
          <mxGeometry width="50" height="50" relative="1" as="geometry">
            <mxPoint x="266" y="559" as="sourcePoint" />
            <mxPoint x="390" y="528" as="targetPoint" />
          </mxGeometry>
        </mxCell>
        <mxCell id="sIWkNSeTRiQGxRRJWXNQ-63" value="" style="endArrow=classic;html=1;rounded=0;exitX=0.5;exitY=0;exitDx=0;exitDy=0;entryX=0.5;entryY=1;entryDx=0;entryDy=0;" parent="1" source="sIWkNSeTRiQGxRRJWXNQ-47" target="sIWkNSeTRiQGxRRJWXNQ-61" edge="1">
          <mxGeometry width="50" height="50" relative="1" as="geometry">
            <mxPoint x="506" y="570" as="sourcePoint" />
            <mxPoint x="425" y="500" as="targetPoint" />
          </mxGeometry>
        </mxCell>
        <mxCell id="sIWkNSeTRiQGxRRJWXNQ-64" value="" style="endArrow=classic;html=1;rounded=0;entryX=0.5;entryY=1;entryDx=0;entryDy=0;" parent="1" target="sIWkNSeTRiQGxRRJWXNQ-60" edge="1">
          <mxGeometry width="50" height="50" relative="1" as="geometry">
            <mxPoint x="430" y="580" as="sourcePoint" />
            <mxPoint x="390" y="470" as="targetPoint" />
          </mxGeometry>
        </mxCell>
        <mxCell id="ZbcVB3F1y08nA2105v1s-44" value="" style="edgeStyle=orthogonalEdgeStyle;rounded=0;orthogonalLoop=1;jettySize=auto;html=1;" edge="1" parent="1" source="ZbcVB3F1y08nA2105v1s-45" target="ZbcVB3F1y08nA2105v1s-47">
          <mxGeometry relative="1" as="geometry" />
        </mxCell>
        <mxCell id="ZbcVB3F1y08nA2105v1s-45" value="CATEGORY" style="rounded=0;whiteSpace=wrap;html=1;" vertex="1" parent="1">
          <mxGeometry x="124" y="870" width="160" height="60" as="geometry" />
        </mxCell>
        <mxCell id="ZbcVB3F1y08nA2105v1s-46" value="&lt;u&gt;cid&lt;/u&gt;" style="ellipse;whiteSpace=wrap;html=1;" vertex="1" parent="1">
          <mxGeometry x="80" y="780" width="80" height="40" as="geometry" />
        </mxCell>
        <mxCell id="ZbcVB3F1y08nA2105v1s-47" value="title" style="ellipse;whiteSpace=wrap;html=1;" vertex="1" parent="1">
          <mxGeometry x="164" y="740" width="80" height="40" as="geometry" />
        </mxCell>
        <mxCell id="ZbcVB3F1y08nA2105v1s-48" value="description" style="ellipse;whiteSpace=wrap;html=1;" vertex="1" parent="1">
          <mxGeometry x="275" y="760" width="80" height="40" as="geometry" />
        </mxCell>
        <mxCell id="ZbcVB3F1y08nA2105v1s-49" value="" style="endArrow=classic;html=1;rounded=0;exitX=0.5;exitY=0;exitDx=0;exitDy=0;entryX=0;entryY=1;entryDx=0;entryDy=0;" edge="1" parent="1" source="ZbcVB3F1y08nA2105v1s-45" target="ZbcVB3F1y08nA2105v1s-48">
          <mxGeometry width="50" height="50" relative="1" as="geometry">
            <mxPoint x="210" y="840" as="sourcePoint" />
            <mxPoint x="260" y="790" as="targetPoint" />
          </mxGeometry>
        </mxCell>
        <mxCell id="ZbcVB3F1y08nA2105v1s-50" value="" style="endArrow=classic;html=1;rounded=0;entryX=1;entryY=1;entryDx=0;entryDy=0;exitX=0.5;exitY=0;exitDx=0;exitDy=0;" edge="1" parent="1" source="ZbcVB3F1y08nA2105v1s-45" target="ZbcVB3F1y08nA2105v1s-46">
          <mxGeometry width="50" height="50" relative="1" as="geometry">
            <mxPoint x="145" y="850" as="sourcePoint" />
            <mxPoint x="195" y="800" as="targetPoint" />
          </mxGeometry>
        </mxCell>
        <mxCell id="ZbcVB3F1y08nA2105v1s-51" value="Quiz" style="rounded=0;whiteSpace=wrap;html=1;" vertex="1" parent="1">
          <mxGeometry x="499" y="870" width="160" height="60" as="geometry" />
        </mxCell>
        <mxCell id="ZbcVB3F1y08nA2105v1s-52" value="cid" style="ellipse;whiteSpace=wrap;html=1;" vertex="1" parent="1">
          <mxGeometry x="419" y="790" width="80" height="40" as="geometry" />
        </mxCell>
        <mxCell id="ZbcVB3F1y08nA2105v1s-53" value="title" style="ellipse;whiteSpace=wrap;html=1;" vertex="1" parent="1">
          <mxGeometry x="475" y="740" width="80" height="40" as="geometry" />
        </mxCell>
        <mxCell id="ZbcVB3F1y08nA2105v1s-54" value="description" style="ellipse;whiteSpace=wrap;html=1;" vertex="1" parent="1">
          <mxGeometry x="570" y="730" width="80" height="40" as="geometry" />
        </mxCell>
        <mxCell id="ZbcVB3F1y08nA2105v1s-55" value="" style="endArrow=classic;html=1;rounded=0;exitX=0.5;exitY=0;exitDx=0;exitDy=0;entryX=0.5;entryY=1;entryDx=0;entryDy=0;" edge="1" parent="1" source="ZbcVB3F1y08nA2105v1s-51" target="ZbcVB3F1y08nA2105v1s-54">
          <mxGeometry width="50" height="50" relative="1" as="geometry">
            <mxPoint x="585" y="840" as="sourcePoint" />
            <mxPoint x="635" y="790" as="targetPoint" />
          </mxGeometry>
        </mxCell>
        <mxCell id="ZbcVB3F1y08nA2105v1s-56" value="" style="endArrow=classic;html=1;rounded=0;entryX=1;entryY=1;entryDx=0;entryDy=0;exitX=0.5;exitY=0;exitDx=0;exitDy=0;" edge="1" parent="1" source="ZbcVB3F1y08nA2105v1s-51" target="ZbcVB3F1y08nA2105v1s-52">
          <mxGeometry width="50" height="50" relative="1" as="geometry">
            <mxPoint x="520" y="850" as="sourcePoint" />
            <mxPoint x="570" y="800" as="targetPoint" />
          </mxGeometry>
        </mxCell>
        <mxCell id="ZbcVB3F1y08nA2105v1s-57" value="" style="endArrow=classic;html=1;rounded=0;entryX=0.5;entryY=1;entryDx=0;entryDy=0;exitX=0.5;exitY=0;exitDx=0;exitDy=0;" edge="1" parent="1" source="ZbcVB3F1y08nA2105v1s-51" target="ZbcVB3F1y08nA2105v1s-53">
          <mxGeometry width="50" height="50" relative="1" as="geometry">
            <mxPoint x="485" y="870" as="sourcePoint" />
            <mxPoint x="535" y="820" as="targetPoint" />
          </mxGeometry>
        </mxCell>
        <mxCell id="ZbcVB3F1y08nA2105v1s-58" value="maxMarks" style="ellipse;whiteSpace=wrap;html=1;" vertex="1" parent="1">
          <mxGeometry x="659" y="740" width="80" height="40" as="geometry" />
        </mxCell>
        <mxCell id="ZbcVB3F1y08nA2105v1s-59" value="noOfQuestions" style="ellipse;whiteSpace=wrap;html=1;" vertex="1" parent="1">
          <mxGeometry x="675" y="790" width="80" height="40" as="geometry" />
        </mxCell>
        <mxCell id="ZbcVB3F1y08nA2105v1s-60" value="" style="endArrow=classic;html=1;rounded=0;exitX=0.5;exitY=0;exitDx=0;exitDy=0;entryX=0.107;entryY=0.853;entryDx=0;entryDy=0;entryPerimeter=0;" edge="1" parent="1" source="ZbcVB3F1y08nA2105v1s-51" target="ZbcVB3F1y08nA2105v1s-58">
          <mxGeometry width="50" height="50" relative="1" as="geometry">
            <mxPoint x="585" y="850" as="sourcePoint" />
            <mxPoint x="650" y="790" as="targetPoint" />
          </mxGeometry>
        </mxCell>
        <mxCell id="ZbcVB3F1y08nA2105v1s-61" value="" style="endArrow=classic;html=1;rounded=0;exitX=0.5;exitY=0;exitDx=0;exitDy=0;" edge="1" parent="1" source="ZbcVB3F1y08nA2105v1s-51" target="ZbcVB3F1y08nA2105v1s-59">
          <mxGeometry width="50" height="50" relative="1" as="geometry">
            <mxPoint x="535" y="860" as="sourcePoint" />
            <mxPoint x="585" y="810" as="targetPoint" />
          </mxGeometry>
        </mxCell>
        <mxCell id="ZbcVB3F1y08nA2105v1s-64" value="HAS" style="rhombus;whiteSpace=wrap;html=1;" vertex="1" parent="1">
          <mxGeometry x="350" y="920" width="80" height="80" as="geometry" />
        </mxCell>
        <mxCell id="ZbcVB3F1y08nA2105v1s-71" value="&lt;u&gt;qid&lt;/u&gt;" style="ellipse;whiteSpace=wrap;html=1;" vertex="1" parent="1">
          <mxGeometry x="410" y="840" width="80" height="40" as="geometry" />
        </mxCell>
        <mxCell id="ZbcVB3F1y08nA2105v1s-72" value="status" style="ellipse;whiteSpace=wrap;html=1;" vertex="1" parent="1">
          <mxGeometry x="680" y="840" width="80" height="40" as="geometry" />
        </mxCell>
        <mxCell id="ZbcVB3F1y08nA2105v1s-73" value="" style="endArrow=classic;html=1;rounded=0;entryX=0;entryY=0.5;entryDx=0;entryDy=0;exitX=0.539;exitY=-0.003;exitDx=0;exitDy=0;exitPerimeter=0;" edge="1" parent="1" source="ZbcVB3F1y08nA2105v1s-51" target="ZbcVB3F1y08nA2105v1s-72">
          <mxGeometry width="50" height="50" relative="1" as="geometry">
            <mxPoint x="490" y="960" as="sourcePoint" />
            <mxPoint x="540" y="910" as="targetPoint" />
          </mxGeometry>
        </mxCell>
        <mxCell id="ZbcVB3F1y08nA2105v1s-74" value="" style="endArrow=classic;html=1;rounded=0;entryX=1;entryY=0.5;entryDx=0;entryDy=0;exitX=0.5;exitY=0;exitDx=0;exitDy=0;" edge="1" parent="1" source="ZbcVB3F1y08nA2105v1s-51" target="ZbcVB3F1y08nA2105v1s-71">
          <mxGeometry width="50" height="50" relative="1" as="geometry">
            <mxPoint x="490" y="960" as="sourcePoint" />
            <mxPoint x="540" y="910" as="targetPoint" />
          </mxGeometry>
        </mxCell>
        <mxCell id="ZbcVB3F1y08nA2105v1s-75" value="" style="endArrow=classic;html=1;rounded=0;entryX=1;entryY=0.5;entryDx=0;entryDy=0;exitX=0;exitY=0.5;exitDx=0;exitDy=0;" edge="1" parent="1" source="ZbcVB3F1y08nA2105v1s-64" target="ZbcVB3F1y08nA2105v1s-45">
          <mxGeometry width="50" height="50" relative="1" as="geometry">
            <mxPoint x="490" y="960" as="sourcePoint" />
            <mxPoint x="540" y="910" as="targetPoint" />
          </mxGeometry>
        </mxCell>
        <mxCell id="ZbcVB3F1y08nA2105v1s-76" value="" style="endArrow=classic;html=1;rounded=0;entryX=0;entryY=0.5;entryDx=0;entryDy=0;exitX=1;exitY=0.5;exitDx=0;exitDy=0;" edge="1" parent="1" source="ZbcVB3F1y08nA2105v1s-64" target="ZbcVB3F1y08nA2105v1s-51">
          <mxGeometry width="50" height="50" relative="1" as="geometry">
            <mxPoint x="490" y="960" as="sourcePoint" />
            <mxPoint x="540" y="910" as="targetPoint" />
          </mxGeometry>
        </mxCell>
        <mxCell id="ZbcVB3F1y08nA2105v1s-77" value="1" style="text;html=1;align=center;verticalAlign=middle;resizable=0;points=[];autosize=1;strokeColor=none;fillColor=none;" vertex="1" parent="1">
          <mxGeometry x="275" y="930" width="30" height="30" as="geometry" />
        </mxCell>
        <mxCell id="ZbcVB3F1y08nA2105v1s-80" value="n" style="text;html=1;align=center;verticalAlign=middle;resizable=0;points=[];autosize=1;strokeColor=none;fillColor=none;" vertex="1" parent="1">
          <mxGeometry x="470" y="930" width="30" height="30" as="geometry" />
        </mxCell>
        <mxCell id="ZbcVB3F1y08nA2105v1s-81" value="Question" style="rounded=0;whiteSpace=wrap;html=1;" vertex="1" parent="1">
          <mxGeometry x="940" y="870" width="160" height="60" as="geometry" />
        </mxCell>
        <mxCell id="ZbcVB3F1y08nA2105v1s-82" value="&lt;u&gt;quesId&lt;/u&gt;" style="ellipse;whiteSpace=wrap;html=1;" vertex="1" parent="1">
          <mxGeometry x="840" y="790" width="80" height="40" as="geometry" />
        </mxCell>
        <mxCell id="ZbcVB3F1y08nA2105v1s-83" value="anwser" style="ellipse;whiteSpace=wrap;html=1;" vertex="1" parent="1">
          <mxGeometry x="860" y="740" width="80" height="40" as="geometry" />
        </mxCell>
        <mxCell id="ZbcVB3F1y08nA2105v1s-84" value="content" style="ellipse;whiteSpace=wrap;html=1;" vertex="1" parent="1">
          <mxGeometry x="930" y="710" width="80" height="40" as="geometry" />
        </mxCell>
        <mxCell id="ZbcVB3F1y08nA2105v1s-85" value="" style="endArrow=classic;html=1;rounded=0;exitX=0.5;exitY=0;exitDx=0;exitDy=0;entryX=0.5;entryY=1;entryDx=0;entryDy=0;" edge="1" parent="1" source="ZbcVB3F1y08nA2105v1s-81" target="ZbcVB3F1y08nA2105v1s-84">
          <mxGeometry width="50" height="50" relative="1" as="geometry">
            <mxPoint x="1026" y="840" as="sourcePoint" />
            <mxPoint x="1076" y="790" as="targetPoint" />
          </mxGeometry>
        </mxCell>
        <mxCell id="ZbcVB3F1y08nA2105v1s-86" value="" style="endArrow=classic;html=1;rounded=0;entryX=1;entryY=1;entryDx=0;entryDy=0;exitX=0.5;exitY=0;exitDx=0;exitDy=0;" edge="1" parent="1" source="ZbcVB3F1y08nA2105v1s-81" target="ZbcVB3F1y08nA2105v1s-82">
          <mxGeometry width="50" height="50" relative="1" as="geometry">
            <mxPoint x="961" y="850" as="sourcePoint" />
            <mxPoint x="1011" y="800" as="targetPoint" />
          </mxGeometry>
        </mxCell>
        <mxCell id="ZbcVB3F1y08nA2105v1s-87" value="" style="endArrow=classic;html=1;rounded=0;entryX=0.5;entryY=1;entryDx=0;entryDy=0;exitX=0.5;exitY=0;exitDx=0;exitDy=0;" edge="1" parent="1" source="ZbcVB3F1y08nA2105v1s-81" target="ZbcVB3F1y08nA2105v1s-83">
          <mxGeometry width="50" height="50" relative="1" as="geometry">
            <mxPoint x="926" y="870" as="sourcePoint" />
            <mxPoint x="976" y="820" as="targetPoint" />
          </mxGeometry>
        </mxCell>
        <mxCell id="ZbcVB3F1y08nA2105v1s-88" value="image" style="ellipse;whiteSpace=wrap;html=1;" vertex="1" parent="1">
          <mxGeometry x="1010" y="700" width="80" height="40" as="geometry" />
        </mxCell>
        <mxCell id="ZbcVB3F1y08nA2105v1s-89" value="option1" style="ellipse;whiteSpace=wrap;html=1;" vertex="1" parent="1">
          <mxGeometry x="1090" y="720" width="80" height="40" as="geometry" />
        </mxCell>
        <mxCell id="ZbcVB3F1y08nA2105v1s-90" value="" style="endArrow=classic;html=1;rounded=0;exitX=0.5;exitY=0;exitDx=0;exitDy=0;entryX=0.395;entryY=0.946;entryDx=0;entryDy=0;entryPerimeter=0;" edge="1" parent="1" source="ZbcVB3F1y08nA2105v1s-81" target="ZbcVB3F1y08nA2105v1s-88">
          <mxGeometry width="50" height="50" relative="1" as="geometry">
            <mxPoint x="1026" y="850" as="sourcePoint" />
            <mxPoint x="1091" y="790" as="targetPoint" />
          </mxGeometry>
        </mxCell>
        <mxCell id="ZbcVB3F1y08nA2105v1s-91" value="" style="endArrow=classic;html=1;rounded=0;exitX=0.5;exitY=0;exitDx=0;exitDy=0;" edge="1" parent="1" source="ZbcVB3F1y08nA2105v1s-81" target="ZbcVB3F1y08nA2105v1s-89">
          <mxGeometry width="50" height="50" relative="1" as="geometry">
            <mxPoint x="976" y="860" as="sourcePoint" />
            <mxPoint x="1026" y="810" as="targetPoint" />
          </mxGeometry>
        </mxCell>
        <mxCell id="ZbcVB3F1y08nA2105v1s-92" value="option2" style="ellipse;whiteSpace=wrap;html=1;" vertex="1" parent="1">
          <mxGeometry x="1160" y="750" width="80" height="40" as="geometry" />
        </mxCell>
        <mxCell id="ZbcVB3F1y08nA2105v1s-93" value="" style="endArrow=classic;html=1;rounded=0;entryX=0;entryY=0.5;entryDx=0;entryDy=0;exitX=0.539;exitY=-0.003;exitDx=0;exitDy=0;exitPerimeter=0;" edge="1" parent="1" source="ZbcVB3F1y08nA2105v1s-81" target="ZbcVB3F1y08nA2105v1s-92">
          <mxGeometry width="50" height="50" relative="1" as="geometry">
            <mxPoint x="931" y="960" as="sourcePoint" />
            <mxPoint x="981" y="910" as="targetPoint" />
          </mxGeometry>
        </mxCell>
        <mxCell id="ZbcVB3F1y08nA2105v1s-94" value="" style="endArrow=classic;html=1;rounded=0;entryX=1;entryY=0.5;entryDx=0;entryDy=0;exitX=0.5;exitY=0;exitDx=0;exitDy=0;" edge="1" parent="1" source="ZbcVB3F1y08nA2105v1s-81" target="ZbcVB3F1y08nA2105v1s-102">
          <mxGeometry width="50" height="50" relative="1" as="geometry">
            <mxPoint x="931" y="960" as="sourcePoint" />
            <mxPoint x="931" y="860" as="targetPoint" />
          </mxGeometry>
        </mxCell>
        <mxCell id="ZbcVB3F1y08nA2105v1s-95" value="" style="endArrow=classic;html=1;rounded=0;entryX=0;entryY=0.5;entryDx=0;entryDy=0;exitX=1;exitY=0.5;exitDx=0;exitDy=0;" edge="1" parent="1" target="ZbcVB3F1y08nA2105v1s-81" source="ZbcVB3F1y08nA2105v1s-97">
          <mxGeometry width="50" height="50" relative="1" as="geometry">
            <mxPoint x="871" y="960" as="sourcePoint" />
            <mxPoint x="981" y="910" as="targetPoint" />
          </mxGeometry>
        </mxCell>
        <mxCell id="ZbcVB3F1y08nA2105v1s-96" value="n" style="text;html=1;align=center;verticalAlign=middle;resizable=0;points=[];autosize=1;strokeColor=none;fillColor=none;" vertex="1" parent="1">
          <mxGeometry x="910" y="930" width="30" height="30" as="geometry" />
        </mxCell>
        <mxCell id="ZbcVB3F1y08nA2105v1s-97" value="HAS" style="rhombus;whiteSpace=wrap;html=1;" vertex="1" parent="1">
          <mxGeometry x="770" y="920" width="80" height="80" as="geometry" />
        </mxCell>
        <mxCell id="ZbcVB3F1y08nA2105v1s-98" value="" style="endArrow=classic;html=1;rounded=0;entryX=1;entryY=0.5;entryDx=0;entryDy=0;exitX=0;exitY=0.5;exitDx=0;exitDy=0;" edge="1" parent="1" source="ZbcVB3F1y08nA2105v1s-97" target="ZbcVB3F1y08nA2105v1s-51">
          <mxGeometry width="50" height="50" relative="1" as="geometry">
            <mxPoint x="860" y="970" as="sourcePoint" />
            <mxPoint x="950" y="910" as="targetPoint" />
          </mxGeometry>
        </mxCell>
        <mxCell id="ZbcVB3F1y08nA2105v1s-101" value="1" style="text;html=1;align=center;verticalAlign=middle;resizable=0;points=[];autosize=1;strokeColor=none;fillColor=none;" vertex="1" parent="1">
          <mxGeometry x="670" y="930" width="30" height="30" as="geometry" />
        </mxCell>
        <mxCell id="ZbcVB3F1y08nA2105v1s-102" value="qid" style="ellipse;whiteSpace=wrap;html=1;" vertex="1" parent="1">
          <mxGeometry x="820" y="840" width="80" height="40" as="geometry" />
        </mxCell>
        <mxCell id="ZbcVB3F1y08nA2105v1s-103" value="option3" style="ellipse;whiteSpace=wrap;html=1;" vertex="1" parent="1">
          <mxGeometry x="1150" y="800" width="80" height="40" as="geometry" />
        </mxCell>
        <mxCell id="ZbcVB3F1y08nA2105v1s-104" value="" style="endArrow=classic;html=1;rounded=0;entryX=0;entryY=0.5;entryDx=0;entryDy=0;exitX=0.5;exitY=0;exitDx=0;exitDy=0;" edge="1" parent="1" source="ZbcVB3F1y08nA2105v1s-81" target="ZbcVB3F1y08nA2105v1s-103">
          <mxGeometry width="50" height="50" relative="1" as="geometry">
            <mxPoint x="720" y="940" as="sourcePoint" />
            <mxPoint x="770" y="890" as="targetPoint" />
          </mxGeometry>
        </mxCell>
        <mxCell id="ZbcVB3F1y08nA2105v1s-106" value="option4" style="ellipse;whiteSpace=wrap;html=1;" vertex="1" parent="1">
          <mxGeometry x="1160" y="850" width="80" height="40" as="geometry" />
        </mxCell>
        <mxCell id="ZbcVB3F1y08nA2105v1s-107" value="" style="endArrow=classic;html=1;rounded=0;entryX=0;entryY=0;entryDx=0;entryDy=0;exitX=0.5;exitY=0;exitDx=0;exitDy=0;" edge="1" parent="1" source="ZbcVB3F1y08nA2105v1s-81" target="ZbcVB3F1y08nA2105v1s-106">
          <mxGeometry width="50" height="50" relative="1" as="geometry">
            <mxPoint x="720" y="940" as="sourcePoint" />
            <mxPoint x="770" y="890" as="targetPoint" />
          </mxGeometry>
        </mxCell>
      </root>
    </mxGraphModel>
  </diagram>
</mxfile>
